<svg xmlns="http://www.w3.org/2000/svg" viewBox="0 0 100 100" fill="none">
  <path d="M50 15C32 15 20 25 15 40C10 55 12 70 20 75C28 80 35 75 40 65L45 55C45 52 47 50 50 50C53 50 55 52 55 55L60 65C65 75 72 80 80 75C88 70 90 55 85 40C80 25 68 15 50 15Z" fill="#00FF7F" stroke="#00FF7F" stroke-width="2"/>
  <circle cx="32" cy="45" r="3" fill="#0A0B0D"/>
  <circle cx="68" cy="42" r="3" fill="#0A0B0D"/>
  <circle cx="68" cy="52" r="3" fill="#0A0B0D"/>
  <path d="M25 45H30M27.5 42.5V47.5" stroke="#0A0B0D" stroke-width="2" stroke-linecap="round"/>
</svg>



