<svg xmlns="http://www.w3.org/2000/svg" viewBox="0 0 100 100" fill="none">
  <circle cx="50" cy="50" r="38" fill="none" stroke="#00FF7F" stroke-width="3"/>
  <path d="M50 12C50 12 35 25 35 40C35 45 38 48 42 50C38 52 35 55 35 60C35 75 50 88 50 88" stroke="#00FF7F" stroke-width="2.5" stroke-linecap="round"/>
  <path d="M50 12C50 12 65 25 65 40C65 45 62 48 58 50C62 52 65 55 65 60C65 75 50 88 50 88" stroke="#00FF7F" stroke-width="2.5" stroke-linecap="round"/>
  <ellipse cx="50" cy="50" rx="15" ry="25" fill="none" stroke="#00FF7F" stroke-width="2.5"/>
  <path d="M20 40C20 40 35 45 50 45C65 45 80 40 80 40" stroke="#00FF7F" stroke-width="2.5" stroke-linecap="round"/>
  <path d="M20 60C20 60 35 55 50 55C65 55 80 60 80 60" stroke="#00FF7F" stroke-width="2.5" stroke-linecap="round"/>
</svg>



