<svg xmlns="http://www.w3.org/2000/svg" viewBox="0 0 100 100" fill="none">
  <rect x="30" y="30" width="40" height="40" rx="4" fill="#00FF7F" stroke="#00FF7F" stroke-width="2"/>
  <rect x="40" y="40" width="20" height="20" rx="2" fill="#0A0B0D"/>
  <line x1="30" y1="35" x2="20" y2="35" stroke="#00FF7F" stroke-width="3" stroke-linecap="round"/>
  <line x1="30" y1="45" x2="20" y2="45" stroke="#00FF7F" stroke-width="3" stroke-linecap="round"/>
  <line x1="30" y1="55" x2="20" y2="55" stroke="#00FF7F" stroke-width="3" stroke-linecap="round"/>
  <line x1="30" y1="65" x2="20" y2="65" stroke="#00FF7F" stroke-width="3" stroke-linecap="round"/>
  <line x1="70" y1="35" x2="80" y2="35" stroke="#00FF7F" stroke-width="3" stroke-linecap="round"/>
  <line x1="70" y1="45" x2="80" y2="45" stroke="#00FF7F" stroke-width="3" stroke-linecap="round"/>
  <line x1="70" y1="55" x2="80" y2="55" stroke="#00FF7F" stroke-width="3" stroke-linecap="round"/>
  <line x1="70" y1="65" x2="80" y2="65" stroke="#00FF7F" stroke-width="3" stroke-linecap="round"/>
  <line x1="35" y1="30" x2="35" y2="20" stroke="#00FF7F" stroke-width="3" stroke-linecap="round"/>
  <line x1="45" y1="30" x2="45" y2="20" stroke="#00FF7F" stroke-width="3" stroke-linecap="round"/>
  <line x1="55" y1="30" x2="55" y2="20" stroke="#00FF7F" stroke-width="3" stroke-linecap="round"/>
  <line x1="65" y1="30" x2="65" y2="20" stroke="#00FF7F" stroke-width="3" stroke-linecap="round"/>
  <line x1="35" y1="70" x2="35" y2="80" stroke="#00FF7F" stroke-width="3" stroke-linecap="round"/>
  <line x1="45" y1="70" x2="45" y2="80" stroke="#00FF7F" stroke-width="3" stroke-linecap="round"/>
  <line x1="55" y1="70" x2="55" y2="80" stroke="#00FF7F" stroke-width="3" stroke-linecap="round"/>
  <line x1="65" y1="70" x2="65" y2="80" stroke="#00FF7F" stroke-width="3" stroke-linecap="round"/>
</svg>



